# xmcd
#
# Track frame offsets:
#	150
#	13022
#	27702
#	44415
#	60490
#	75607
#	92365
#	106385
#	124907
#	136452
#	149645
#	161757
#	173820
#	196242
#
# Disc length: 2819
#
# Revision: 1
# Processed by: cddbd v1.5.1PL0 Copyright (c) Steve Scherf et al.
# Submitted via: VisiTrax 2.9.3.171 - For more info visit www.synapsa.com
# Normalized: r0:DSETVAR1
#
DISCID=c20b010e
DTITLE=Various Artist - Mr Music Country 11-99
DYEAR=1900
DGENRE=
TTITLE0=Sawyer Brown - Six Dayn On The Road
TTITLE1=Philip Claypool - Jack Daniels and Mr Jim Beam
TTITLE2=Jeff Carson with Merle Haggard - Today I Started Loving You Again
TTITLE3=Junior Brown - Long Walk Back To San Antone
TTITLE4=Kippi Brannon - Two More To Drive Away
TTITLE5=Keith Perry - Hatfields And McCoys
TTITLE6=Wynonna - When Love Starts Talkin'
TTITLE7=Boy Howdy - Field Of Dreams
TTITLE8=Blake and Brian - Why, Why, Why
TTITLE9=LeAnn Rimes - These Arms Of Mine
TTITLE10=Trini Triggs - Straight Tequila
TTITLE11=Jett Williams - Hey Good Lookin'
TTITLE12=Hank Williams Jr - Gibbsonville Gold
TTITLE13=Hank Williams III - I Don't Know
EXTD=
EXTT0=
EXTT1=
EXTT2=
EXTT3=
EXTT4=
EXTT5=
EXTT6=
EXTT7=
EXTT8=
EXTT9=
EXTT10=
EXTT11=
EXTT12=
EXTT13=
PLAYORDER=
